<svg width="115" height="23" viewBox="0 0 115 23" fill="none" xmlns="http://www.w3.org/2000/svg">
<path d="M11.439 10.633V10.478C13.02 9.734 14.477 8.432 14.477 5.704C14.477 2.511 12.462 0.309999 8.277 0.309999H0V22.01H8.308C12.524 22.01 15.066 19.84 15.066 16.058C15.066 12.772 13.113 11.253 11.439 10.633ZM3.193 2.976H7.936C9.92 2.976 11.222 4.154 11.222 6.169C11.222 8.184 10.044 9.517 7.843 9.517H3.193V2.976ZM8.029 19.344H3.193V12.183H8.029C10.323 12.183 11.749 13.733 11.749 15.841C11.749 17.918 10.385 19.344 8.029 19.344Z" fill="#ffffff"/>
<path d="M38.115 15.283H34.612C33.837 17.67 31.636 19.313 28.536 19.313C24.382 19.313 21.406 15.965 21.406 11.253C21.406 6.696 24.227 3.007 28.567 3.007C31.512 3.007 33.558 4.681 34.271 7.192H37.774C36.999 2.604 33.279 0 28.536 0C22.274 0 18.089 4.774 18.089 11.253C18.089 17.67 22.15 22.32 28.536 22.32C33.434 22.32 37.34 19.623 38.115 15.283Z" fill="#ffffff"/>
<path d="M48.6298 22.32C53.1868 22.32 56.5968 18.941 56.5968 14.26C56.5968 9.579 53.1868 6.2 48.6298 6.2C44.0728 6.2 40.7248 9.548 40.7248 14.26C40.7248 18.91 44.1038 22.32 48.6298 22.32ZM48.6298 19.561C45.7468 19.561 43.8558 17.143 43.8558 14.26C43.8558 11.346 45.7468 8.959 48.6298 8.959C51.5128 8.959 53.4658 11.346 53.4658 14.26C53.4658 17.143 51.5128 19.561 48.6298 19.561Z" fill="#ffffff"/>
<path d="M59.9601 22.01H63.1221V12.617C63.1221 10.106 64.7961 8.959 66.3461 8.959C67.9891 8.959 69.3221 10.137 69.3221 12.493V22.01H72.4841V12.679C72.4841 10.447 73.8171 8.959 75.7391 8.959C77.3511 8.959 78.7151 10.013 78.7151 12.338V22.01H81.8771V11.718C81.8771 8.029 79.7691 6.2 76.7311 6.2C74.0651 6.2 72.7011 7.533 71.9261 8.835H71.7091C71.2131 7.688 70.0661 6.2 67.5551 6.2C65.4161 6.2 64.1451 7.192 63.3391 8.339H63.1221L62.812 6.51H59.9601V22.01Z" fill="#ffffff"/>
<path d="M99.7679 14.043C99.7679 8.711 96.4509 6.2 92.6689 6.2C88.4529 6.2 85.1359 9.362 85.1359 14.415C85.1359 19.189 88.3289 22.32 92.7929 22.32C96.4509 22.32 99.0549 20.46 99.7059 17.36H96.6679C96.1719 18.941 94.7459 19.747 92.7929 19.747C90.0649 19.747 88.3909 17.825 88.2359 15.066H99.7059C99.7369 14.663 99.7679 14.353 99.7679 14.043ZM92.6689 8.773C95.0559 8.773 96.6679 10.447 96.6989 12.834H88.2669C88.5769 10.571 90.2199 8.773 92.6689 8.773Z" fill="#ffffff"/>
<path d="M112.875 14.415C113.96 14.415 114.89 13.485 114.89 12.4C114.89 11.253 113.96 10.323 112.875 10.323C111.759 10.323 110.829 11.253 110.829 12.4C110.829 13.485 111.759 14.415 112.875 14.415Z" fill="#ffffff"/>
</svg>
